<svg width="127" height="20" viewBox="0 0 127 20" fill="none" xmlns="http://www.w3.org/2000/svg">
<path d="M0.721591 19V1.54545H7.40341C8.66477 1.54545 9.71307 1.74432 10.5483 2.14204C11.3892 2.53409 12.017 3.07102 12.4318 3.75284C12.8523 4.43466 13.0625 5.20739 13.0625 6.07102C13.0625 6.78125 12.9261 7.3892 12.6534 7.89489C12.3807 8.39489 12.0142 8.80114 11.554 9.11364C11.0938 9.42614 10.5795 9.65057 10.0114 9.78693V9.95739C10.6307 9.99148 11.2244 10.1818 11.7926 10.5284C12.3665 10.8693 12.8352 11.3523 13.1989 11.9773C13.5625 12.6023 13.7443 13.358 13.7443 14.2443C13.7443 15.1477 13.5256 15.9602 13.0881 16.6818C12.6506 17.3977 11.9915 17.9631 11.1108 18.3778C10.2301 18.7926 9.12216 19 7.78693 19H0.721591ZM3.88352 16.358H7.28409C8.43182 16.358 9.25852 16.1392 9.7642 15.7017C10.2756 15.2585 10.5312 14.6903 10.5312 13.9972C10.5312 13.4801 10.4034 13.0142 10.1477 12.5994C9.89205 12.179 9.52841 11.8494 9.05682 11.6108C8.58523 11.3665 8.02273 11.2443 7.36932 11.2443H3.88352V16.358ZM3.88352 8.96875H7.01136C7.55682 8.96875 8.0483 8.86932 8.4858 8.67045C8.9233 8.46591 9.26705 8.17898 9.51705 7.80966C9.77273 7.43466 9.90057 6.99148 9.90057 6.48011C9.90057 5.80398 9.66193 5.24716 9.18466 4.80966C8.71307 4.37216 8.01136 4.15341 7.07955 4.15341H3.88352V8.96875ZM22.1541 19.2557C20.8416 19.2557 19.7081 18.983 18.7536 18.4375C17.8047 17.8864 17.0746 17.108 16.5632 16.1023C16.0518 15.0909 15.7962 13.9006 15.7962 12.5312C15.7962 11.1847 16.0518 10.0028 16.5632 8.9858C17.0803 7.96307 17.8018 7.16761 18.728 6.59943C19.6541 6.02557 20.7422 5.73864 21.9922 5.73864C22.799 5.73864 23.5604 5.86932 24.2763 6.13068C24.9979 6.38636 25.6342 6.78409 26.1854 7.32386C26.7422 7.86364 27.1797 8.55114 27.4979 9.38636C27.8161 10.2159 27.9751 11.2045 27.9751 12.3523V13.2983H17.245V11.2188H25.0178C25.0121 10.6278 24.8842 10.1023 24.6342 9.64205C24.3842 9.17614 24.0348 8.80966 23.5859 8.54261C23.1428 8.27557 22.6257 8.14205 22.0348 8.14205C21.4041 8.14205 20.8501 8.29545 20.3729 8.60227C19.8956 8.90341 19.5234 9.30114 19.2564 9.79545C18.995 10.2841 18.8615 10.821 18.8558 11.4062V13.2216C18.8558 13.983 18.995 14.6364 19.2734 15.1818C19.5518 15.7216 19.9411 16.1364 20.4411 16.4261C20.9411 16.7102 21.5263 16.8523 22.1967 16.8523C22.6456 16.8523 23.0518 16.7898 23.4155 16.6648C23.7791 16.5341 24.0945 16.3438 24.3615 16.0938C24.6286 15.8438 24.8303 15.5341 24.9666 15.1648L27.8473 15.4886C27.6655 16.25 27.3189 16.9148 26.8075 17.483C26.3018 18.0455 25.6541 18.483 24.8643 18.7955C24.0746 19.1023 23.1712 19.2557 22.1541 19.2557ZM42.4148 7.11932C42.2727 6.65909 42.0767 6.24716 41.8267 5.88352C41.5824 5.5142 41.2869 5.19886 40.9403 4.9375C40.5994 4.67614 40.2074 4.48011 39.7642 4.34943C39.321 4.21307 38.8381 4.14489 38.3153 4.14489C37.3778 4.14489 36.5426 4.38068 35.8097 4.85227C35.0767 5.32386 34.5 6.01704 34.0795 6.93182C33.6648 7.84091 33.4574 8.94886 33.4574 10.2557C33.4574 11.5739 33.6648 12.6903 34.0795 13.6051C34.4943 14.5199 35.071 15.2159 35.8097 15.6932C36.5483 16.1648 37.4063 16.4006 38.3835 16.4006C39.2699 16.4006 40.0369 16.2301 40.6847 15.8892C41.3381 15.5483 41.8409 15.0653 42.1932 14.4403C42.5455 13.8097 42.7216 13.071 42.7216 12.2244L43.4375 12.3352H38.6989V9.86364H45.7812V11.9602C45.7812 13.4545 45.4631 14.7472 44.8267 15.8381C44.1903 16.929 43.3153 17.7699 42.2017 18.3608C41.0881 18.946 39.8097 19.2386 38.3665 19.2386C36.7585 19.2386 35.3466 18.8778 34.1307 18.1562C32.9205 17.429 31.9744 16.3977 31.2926 15.0625C30.6165 13.7216 30.2784 12.1307 30.2784 10.2898C30.2784 8.88068 30.4773 7.62216 30.875 6.5142C31.2784 5.40625 31.8409 4.46591 32.5625 3.69318C33.2841 2.91477 34.1307 2.32386 35.1023 1.92045C36.0739 1.51136 37.1307 1.30682 38.2727 1.30682C39.2386 1.30682 40.1392 1.44886 40.9744 1.73295C41.8097 2.01136 42.5511 2.40909 43.1989 2.92614C43.8523 3.44318 44.3892 4.05682 44.8097 4.76704C45.2301 5.47727 45.5057 6.26136 45.6364 7.11932H42.4148ZM48.7024 19V5.90909H51.6939V8.09091H51.8303C52.0689 7.33523 52.478 6.75284 53.0575 6.34375C53.6428 5.92898 54.3104 5.72159 55.0604 5.72159C55.2308 5.72159 55.4212 5.73011 55.6314 5.74716C55.8473 5.75852 56.0263 5.77841 56.1683 5.80682V8.64489C56.0376 8.59943 55.8303 8.55966 55.5462 8.52557C55.2678 8.4858 54.9979 8.46591 54.7365 8.46591C54.174 8.46591 53.6683 8.58807 53.2195 8.83239C52.7763 9.07102 52.4268 9.40341 52.1712 9.82955C51.9155 10.2557 51.7876 10.7472 51.7876 11.304V19H48.7024ZM61.7507 19.2642C60.9212 19.2642 60.174 19.1165 59.5092 18.821C58.8501 18.5199 58.3274 18.0767 57.9411 17.4915C57.5604 16.9062 57.37 16.1847 57.37 15.3267C57.37 14.5881 57.5064 13.9773 57.7791 13.4943C58.0518 13.0114 58.424 12.625 58.8956 12.3352C59.3672 12.0455 59.8984 11.8267 60.4893 11.679C61.0859 11.5256 61.7024 11.4148 62.3388 11.3466C63.1058 11.267 63.728 11.196 64.2053 11.1335C64.6825 11.0653 65.0291 10.9631 65.245 10.8267C65.4666 10.6847 65.5774 10.4659 65.5774 10.1705V10.1193C65.5774 9.47727 65.3871 8.98011 65.0064 8.62784C64.6257 8.27557 64.0774 8.09943 63.3615 8.09943C62.6058 8.09943 62.0064 8.2642 61.5632 8.59375C61.1257 8.9233 60.8303 9.3125 60.6768 9.76136L57.7962 9.35227C58.0234 8.55682 58.3984 7.89205 58.9212 7.35795C59.4439 6.81818 60.0831 6.41477 60.8388 6.14773C61.5945 5.875 62.4297 5.73864 63.3445 5.73864C63.9751 5.73864 64.603 5.8125 65.228 5.96023C65.853 6.10795 66.424 6.35227 66.9411 6.69318C67.4581 7.02841 67.8729 7.4858 68.1854 8.06534C68.5036 8.64489 68.6626 9.36932 68.6626 10.2386V19H65.6967V17.2017H65.5945C65.407 17.5653 65.1428 17.9062 64.8018 18.2244C64.4666 18.5369 64.0433 18.7898 63.532 18.983C63.0263 19.1705 62.4325 19.2642 61.7507 19.2642ZM62.5518 16.9972C63.1712 16.9972 63.7081 16.875 64.1626 16.6307C64.6172 16.3807 64.9666 16.0511 65.2109 15.642C65.4609 15.233 65.5859 14.7869 65.5859 14.304V12.7614C65.4893 12.8409 65.3246 12.9148 65.0916 12.983C64.8643 13.0511 64.6087 13.1108 64.3246 13.1619C64.0405 13.2131 63.7592 13.2585 63.4808 13.2983C63.2024 13.3381 62.9609 13.3722 62.7564 13.4006C62.2962 13.4631 61.8842 13.5653 61.5206 13.7074C61.157 13.8494 60.87 14.0483 60.6598 14.304C60.4496 14.554 60.3445 14.8778 60.3445 15.2756C60.3445 15.8438 60.5518 16.2727 60.9666 16.5625C61.3814 16.8523 61.9098 16.9972 62.5518 16.9972ZM77.4751 19.2557C76.1683 19.2557 75.0462 18.9688 74.1087 18.3949C73.1768 17.821 72.4581 17.0284 71.9524 16.017C71.4524 15 71.2024 13.8295 71.2024 12.5057C71.2024 11.1761 71.4581 10.0028 71.9695 8.9858C72.4808 7.96307 73.2024 7.16761 74.1342 6.59943C75.0717 6.02557 76.1797 5.73864 77.4581 5.73864C78.5206 5.73864 79.4609 5.93466 80.2791 6.3267C81.103 6.71307 81.7592 7.26136 82.2479 7.97159C82.7365 8.67614 83.0149 9.5 83.0831 10.4432H80.1342C80.0149 9.8125 79.7308 9.28693 79.282 8.86648C78.8388 8.44034 78.245 8.22727 77.5007 8.22727C76.87 8.22727 76.3161 8.39773 75.8388 8.73864C75.3615 9.07386 74.9893 9.55682 74.7223 10.1875C74.4609 10.8182 74.3303 11.5739 74.3303 12.4545C74.3303 13.3466 74.4609 14.1136 74.7223 14.7557C74.9837 15.392 75.3501 15.8835 75.8217 16.2301C76.299 16.571 76.8587 16.7415 77.5007 16.7415C77.9553 16.7415 78.3615 16.6562 78.7195 16.4858C79.0831 16.3097 79.3871 16.0568 79.6314 15.7273C79.8757 15.3977 80.0433 14.9972 80.1342 14.5256H83.0831C83.0092 15.4517 82.7365 16.2727 82.2649 16.9886C81.7933 17.6989 81.1513 18.2557 80.3388 18.6591C79.5263 19.0568 78.5717 19.2557 77.4751 19.2557ZM91.4119 19.2557C90.0994 19.2557 88.9659 18.983 88.0114 18.4375C87.0625 17.8864 86.3324 17.108 85.821 16.1023C85.3097 15.0909 85.054 13.9006 85.054 12.5312C85.054 11.1847 85.3097 10.0028 85.821 8.9858C86.3381 7.96307 87.0597 7.16761 87.9858 6.59943C88.9119 6.02557 90 5.73864 91.25 5.73864C92.0568 5.73864 92.8182 5.86932 93.5341 6.13068C94.2557 6.38636 94.892 6.78409 95.4432 7.32386C96 7.86364 96.4375 8.55114 96.7557 9.38636C97.0739 10.2159 97.233 11.2045 97.233 12.3523V13.2983H86.5028V11.2188H94.2756C94.2699 10.6278 94.142 10.1023 93.892 9.64205C93.642 9.17614 93.2926 8.80966 92.8438 8.54261C92.4006 8.27557 91.8835 8.14205 91.2926 8.14205C90.6619 8.14205 90.108 8.29545 89.6307 8.60227C89.1534 8.90341 88.7813 9.30114 88.5142 9.79545C88.2528 10.2841 88.1193 10.821 88.1136 11.4062V13.2216C88.1136 13.983 88.2528 14.6364 88.5312 15.1818C88.8097 15.7216 89.1989 16.1364 89.6989 16.4261C90.1989 16.7102 90.7841 16.8523 91.4545 16.8523C91.9034 16.8523 92.3097 16.7898 92.6733 16.6648C93.0369 16.5341 93.3523 16.3438 93.6193 16.0938C93.8864 15.8438 94.0881 15.5341 94.2244 15.1648L97.1051 15.4886C96.9233 16.25 96.5767 16.9148 96.0653 17.483C95.5597 18.0455 94.9119 18.483 94.1222 18.7955C93.3324 19.1023 92.429 19.2557 91.4119 19.2557ZM106.474 5.90909V8.29545H98.7351V5.90909H106.474ZM100.67 19V4.67329C100.67 3.79261 100.852 3.05966 101.215 2.47443C101.585 1.8892 102.079 1.4517 102.698 1.16193C103.317 0.872158 104.005 0.727272 104.761 0.727272C105.295 0.727272 105.769 0.769886 106.184 0.855114C106.599 0.940341 106.906 1.01705 107.104 1.08523L106.491 3.47159C106.36 3.43182 106.195 3.39204 105.996 3.35227C105.798 3.30682 105.576 3.28409 105.332 3.28409C104.758 3.28409 104.352 3.4233 104.113 3.7017C103.88 3.97443 103.763 4.36648 103.763 4.87784V19H100.67ZM117.234 13.4943V5.90909H120.319V19H117.327V16.6733H117.191C116.896 17.4062 116.41 18.0057 115.734 18.4716C115.063 18.9375 114.237 19.1705 113.254 19.1705C112.396 19.1705 111.637 18.9801 110.978 18.5994C110.325 18.2131 109.813 17.6534 109.444 16.9205C109.075 16.1818 108.89 15.2898 108.89 14.2443V5.90909H111.975V13.767C111.975 14.5966 112.202 15.2557 112.657 15.7443C113.112 16.233 113.708 16.4773 114.447 16.4773C114.901 16.4773 115.342 16.3665 115.768 16.1449C116.194 15.9233 116.543 15.5938 116.816 15.1562C117.094 14.7131 117.234 14.1591 117.234 13.4943ZM126.577 1.54545V19H123.491V1.54545H126.577Z" fill="url(#paint0_linear_4_121)"/>
<defs>
<linearGradient id="paint0_linear_4_121" x1="-1" y1="10.5" x2="129" y2="10.5" gradientUnits="userSpaceOnUse">
<stop stop-color="#457CF5"/>
<stop offset="1" stop-color="#9136EB"/>
</linearGradient>
</defs>
</svg>
